<svg width="20" height="20" viewBox="0 0 20 20" fill="none" xmlns="http://www.w3.org/2000/svg">
<path d="M5.33301 0.0449219H13.5449C14.209 0.0449219 14.8485 0.296907 15.334 0.75L19.1221 4.28613C19.6532 4.78188 19.955 5.47564 19.9551 6.20215V14.667C19.9549 17.5874 17.5874 19.9549 14.667 19.9551H5.33301C2.4126 19.9549 0.0450975 17.5874 0.0449219 14.667V5.33301C0.0450979 2.4126 2.4126 0.0450979 5.33301 0.0449219ZM5.33301 1.28809C3.09928 1.28826 1.28826 3.09928 1.28809 5.33301V14.667C1.28826 16.9007 3.09928 18.7117 5.33301 18.7119H14.667C16.9007 18.7117 18.7117 16.9007 18.7119 14.667V6.20215C18.7119 6.13174 18.7059 6.06189 18.6953 5.99316L18.6895 5.95508H16C14.5521 5.95508 13.3779 4.78092 13.3779 3.33301V1.28809H5.33301ZM14.6221 3.33301C14.6221 4.09423 15.2388 4.71191 16 4.71191H17.7559L17.6729 4.63379L14.6973 1.85645L14.6221 1.78613V3.33301Z" fill="#D17010" stroke="white" stroke-width="0.09"/>
<path d="M12.6113 9.58984C12.7229 9.58989 12.8306 9.63148 12.9102 9.70605C12.9496 9.74302 12.9805 9.78732 13.002 9.83594C13.0234 9.88449 13.0351 9.93653 13.0352 9.98926C13.0352 10.0421 13.0235 10.0949 13.002 10.1436C12.9805 10.192 12.9496 10.2365 12.9102 10.2734L9.02148 13.9189C8.98205 13.956 8.93503 13.985 8.88379 14.0049C8.83264 14.0248 8.77787 14.0351 8.72266 14.0352C8.66726 14.0352 8.6118 14.0248 8.56055 14.0049C8.50929 13.985 8.46229 13.9559 8.42285 13.9189L6.08984 11.7314C6.05041 11.6945 6.01954 11.6502 5.99805 11.6016C5.97658 11.553 5.96489 11.501 5.96484 11.4482C5.96484 11.3954 5.97654 11.3426 5.99805 11.2939C6.01955 11.2455 6.05045 11.201 6.08984 11.1641C6.12925 11.1271 6.17636 11.098 6.22754 11.0781C6.27868 11.0583 6.33348 11.0479 6.38867 11.0479C6.44407 11.0479 6.49953 11.0582 6.55078 11.0781C6.60202 11.098 6.64907 11.1271 6.68848 11.1641L8.72168 13.0713L12.3125 9.70605C12.3921 9.63151 12.4998 9.58984 12.6113 9.58984Z" fill="#D17010" stroke="#D17010" stroke-width="0.07"/>
<path d="M12.6113 6.96484C12.7229 6.96489 12.8306 7.00648 12.9102 7.08105C12.9496 7.11802 12.9805 7.16232 13.002 7.21094C13.0234 7.25949 13.0351 7.31153 13.0352 7.36426C13.0352 7.41706 13.0235 7.46989 13.002 7.51855C12.9805 7.56703 12.9496 7.61153 12.9102 7.64844L9.02148 11.2939C8.98205 11.331 8.93503 11.36 8.88379 11.3799C8.83264 11.3998 8.77787 11.4101 8.72266 11.4102C8.66726 11.4102 8.6118 11.3998 8.56055 11.3799C8.50929 11.36 8.46229 11.3309 8.42285 11.2939L6.08984 9.10645C6.05041 9.06951 6.01954 9.02515 5.99805 8.97656C5.97658 8.92803 5.96489 8.87595 5.96484 8.82324C5.96484 8.77044 5.97654 8.71761 5.99805 8.66895C6.01955 8.62047 6.05045 8.57595 6.08984 8.53906C6.12925 8.50211 6.17636 8.47302 6.22754 8.45312C6.27868 8.43328 6.33348 8.42289 6.38867 8.42285C6.44407 8.42285 6.49953 8.4332 6.55078 8.45312C6.60202 8.47305 6.64907 8.50208 6.68848 8.53906L8.72168 10.4463L12.3125 7.08105C12.3921 7.00651 12.4998 6.96484 12.6113 6.96484Z" fill="#D17010" stroke="#D17010" stroke-width="0.07"/>
</svg>
