<svg width="20" height="20" viewBox="0 0 20 20" fill="none" xmlns="http://www.w3.org/2000/svg">
<path d="M13.2164 7.9118C13.4492 7.66321 13.8399 7.65074 14.0885 7.88348C14.3367 8.11621 14.3493 8.50609 14.1168 8.75458L9.12366 14.0886C9.0071 14.2129 8.8439 14.2829 8.67346 14.2829C8.50301 14.2828 8.33981 14.213 8.22327 14.0886L5.88342 11.5886C5.65068 11.34 5.66315 10.9492 5.91174 10.7165C6.16033 10.4837 6.55108 10.4962 6.78381 10.7448L8.63733 12.7253L8.67346 12.7643L8.71057 12.7253L13.2164 7.9118Z" fill="#D17010" stroke="white" stroke-width="0.1"/>
<path d="M5.33301 0.0498047H13.5449C14.2077 0.0498047 14.8455 0.301735 15.3301 0.753906L19.1191 4.28906C19.6493 4.78387 19.9501 5.47698 19.9502 6.20215V14.667C19.95 17.5847 17.5847 19.95 14.667 19.9502H5.33301C2.41536 19.95 0.0499804 17.5847 0.0498047 14.667V5.33301C0.0499807 2.41536 2.41536 0.0499807 5.33301 0.0498047ZM5.33301 1.2832C3.09652 1.28338 1.28338 3.09652 1.2832 5.33301V14.667C1.28338 16.9035 3.09652 18.7166 5.33301 18.7168H14.667C16.9035 18.7166 18.7166 16.9035 18.7168 14.667V6.20215C18.7168 6.13149 18.7108 6.06116 18.7002 5.99219L18.6943 5.9502H16C14.5548 5.9502 13.3838 4.77816 13.3838 3.33301V1.2832H5.33301ZM14.6162 3.33301C14.6162 4.09699 15.236 4.7168 16 4.7168H17.7686L17.6758 4.62988L14.7012 1.85352L14.6162 1.77441V3.33301Z" fill="#D17010" stroke="white" stroke-width="0.1"/>
</svg>
