<svg width="18" height="18" viewBox="0 0 18 18" fill="none" xmlns="http://www.w3.org/2000/svg">
<path d="M9 1.125C7.44248 1.125 5.91992 1.58686 4.62489 2.45218C3.32985 3.31749 2.32049 4.5474 1.72445 5.98637C1.12841 7.42534 0.972461 9.00874 1.27632 10.5363C1.58018 12.0639 2.3302 13.4671 3.43154 14.5685C4.53288 15.6698 5.93607 16.4198 7.46367 16.7237C8.99127 17.0275 10.5747 16.8716 12.0136 16.2756C13.4526 15.6795 14.6825 14.6702 15.5478 13.3751C16.4131 12.0801 16.875 10.5575 16.875 9C16.875 6.91142 16.0453 4.90838 14.5685 3.43153C13.0916 1.95469 11.0886 1.125 9 1.125ZM7.875 12.1448L5.0625 9.33232L5.95722 8.4375L7.875 10.3552L12.0431 6.1875L12.9407 7.07957L7.875 12.1448Z" fill="#42BE65"/>
</svg>
