<svg xmlns="http://www.w3.org/2000/svg" width="18" height="18" viewBox="0 0 18 18" fill="none">
    <path d="M16.875 13.5C16.875 12.8325 16.6771 12.18 16.3062 11.625C15.9354 11.0699 15.4083 10.6374 14.7916 10.3819C14.1749 10.1265 13.4963 10.0596 12.8416 10.1899C12.1869 10.3201 11.5855 10.6415 11.1135 11.1135C10.6415 11.5855 10.3201 12.1869 10.1899 12.8416C10.0596 13.4963 10.1265 14.1749 10.3819 14.7916C10.6374 15.4083 11.0699 15.9354 11.625 16.3062C12.18 16.6771 12.8325 16.875 13.5 16.875C14.3948 16.874 15.2527 16.5181 15.8854 15.8854C16.5181 15.2527 16.874 14.3948 16.875 13.5ZM15.75 13.5C15.7479 13.9004 15.6377 14.2927 15.4311 14.6357L12.3643 11.5689C12.7073 11.3623 13.0996 11.2521 13.5 11.25C14.0965 11.2507 14.6684 11.4879 15.0903 11.9098C15.5121 12.3316 15.7493 12.9035 15.75 13.5ZM11.25 13.5C11.2521 13.0996 11.3623 12.7073 11.5689 12.3643L14.6357 15.4311C14.2927 15.6377 13.9004 15.7479 13.5 15.75C12.9035 15.7493 12.3316 15.5121 11.9098 15.0903C11.4879 14.6684 11.2507 14.0965 11.25 13.5Z" fill="#DA1E28"/>
    <path d="M7.87503 1.12511C6.93773 1.11968 6.00957 1.30953 5.14968 1.68254C4.28978 2.05556 3.517 2.60358 2.88056 3.29169C2.24411 3.97981 1.75795 4.79293 1.45305 5.67927C1.14815 6.56561 1.03118 7.50573 1.10961 8.43976C1.18803 9.37379 1.46012 10.2813 1.90856 11.1043C2.35699 11.9274 2.97193 12.6481 3.7142 13.2204C4.45648 13.7928 5.30983 14.2043 6.21989 14.4287C7.12994 14.6531 8.07676 14.6855 9.00003 14.5239V13.5001C9.00003 12.3066 9.47414 11.162 10.3181 10.3181C11.162 9.47422 12.3066 9.00011 13.5 9.00011H14.5238C14.6939 8.03189 14.6493 7.03811 14.3932 6.08901C14.137 5.13991 13.6755 4.25865 13.0413 3.5075C12.4071 2.75636 11.6157 2.15366 10.723 1.74199C9.83031 1.33032 8.85808 1.11974 7.87503 1.12511ZM6.75003 10.4574L4.50003 8.20744L5.39486 7.31261L6.75003 8.66779L9.79271 5.62511L10.6875 6.51994L6.75003 10.4574Z" fill="#DA1E28"/>
</svg>