<svg width="16" height="16" viewBox="0 0 16 16" fill="none" xmlns="http://www.w3.org/2000/svg">
<g id="Error--filled">
<rect width="16" height="16" fill="white" style="mix-blend-mode:multiply"/>
<path id="Vector" d="M8.00001 1.00013C7.07916 0.994424 6.16634 1.17159 5.31449 1.52135C4.46263 1.87111 3.68869 2.38651 3.03754 3.03766C2.38639 3.68881 1.87099 4.46275 1.52123 5.31461C1.17146 6.16647 0.994302 7.07929 1.00001 8.00013C0.994302 8.92098 1.17146 9.8338 1.52123 10.6857C1.87099 11.5375 2.38639 12.3115 3.03754 12.9626C3.68869 13.6138 4.46263 14.1292 5.31449 14.4789C6.16634 14.8287 7.07916 15.0058 8.00001 15.0001C8.92086 15.0058 9.83368 14.8287 10.6855 14.4789C11.5374 14.1292 12.3113 13.6138 12.9625 12.9626C13.6136 12.3115 14.129 11.5375 14.4788 10.6857C14.8286 9.8338 15.0057 8.92098 15 8.00013C15.0057 7.07929 14.8286 6.16647 14.4788 5.31461C14.129 4.46275 13.6136 3.68881 12.9625 3.03766C12.3113 2.38651 11.5374 1.87111 10.6855 1.52135C9.83368 1.17159 8.92086 0.994424 8.00001 1.00013ZM10.7225 11.5001L4.50001 5.27798L5.27786 4.50013L11.5 10.7225L10.7225 11.5001Z" fill="#DA1E28"/>
</g>
</svg>
