<svg xmlns="http://www.w3.org/2000/svg" width="20" height="20" viewBox="0 0 20 20" fill="none">
  <rect width="20" height="20" fill="white" style="mix-blend-mode:multiply"/>
  <path d="M10.0002 1.25017C8.84911 1.24303 7.70808 1.46448 6.64326 1.90168C5.57844 2.33889 4.61101 2.98313 3.79707 3.79707C2.98313 4.61101 2.33889 5.57844 1.90168 6.64326C1.46448 7.70808 1.24303 8.84911 1.25017 10.0002C1.24303 11.1512 1.46448 12.2923 1.90168 13.3571C2.33889 14.4219 2.98313 15.3893 3.79707 16.2033C4.61101 17.0172 5.57844 17.6614 6.64326 18.0986C7.70808 18.5359 8.84911 18.7573 10.0002 18.7502C11.1512 18.7573 12.2923 18.5359 13.3571 18.0986C14.4219 17.6614 15.3893 17.0172 16.2033 16.2033C17.0172 15.3893 17.6614 14.4219 18.0986 13.3571C18.5359 12.2923 18.7573 11.1512 18.7502 10.0002C18.7573 8.84911 18.5359 7.70808 18.0986 6.64326C17.6614 5.57844 17.0172 4.61101 16.2033 3.79707C15.3893 2.98313 14.4219 2.33889 13.3571 1.90168C12.2923 1.46448 11.1512 1.24303 10.0002 1.25017ZM13.4032 14.3752L5.62517 6.59748L6.59748 5.62517L14.3752 13.4032L13.4032 14.3752Z" fill="#DA1E28"/>
</svg>
