<svg width="20" height="20" viewBox="0 0 20 20" fill="none" xmlns="http://www.w3.org/2000/svg">
<path d="M16.79 5.21429L11.89 0.214286C11.75 0.0714285 11.61 0 11.4 0H4.4C3.63 0 3 0.642857 3 1.42857V18.5714C3 19.3571 3.63 20 4.4 20H15.6C16.37 20 17 19.3571 17 18.5714V5.71429C17 5.5 16.93 5.35714 16.79 5.21429ZM11.4 1.71429L15.32 5.71429H11.4V1.71429ZM15.6 18.5714H4.4V1.42857H10V5.71429C10 6.5 10.63 7.14286 11.4 7.14286H15.6V18.5714Z" fill="#0F62FE"/>
<path d="M6.25 13.75H13.75V15H6.25V13.75Z" fill="#0F62FE"/>
<path d="M6.25 10H13.75V11.25H6.25V10Z" fill="#0F62FE"/>
</svg>
