<svg width="20" height="23" viewBox="0 0 20 23" fill="none" xmlns="http://www.w3.org/2000/svg">
<circle cx="10" cy="13" r="9.5" fill="#DA1E28" stroke="#DA1E28"/>
<path d="M13.9489 10.777L11.8395 11.0071C11.7798 10.794 11.6754 10.5938 11.5263 10.4062C11.3814 10.2188 11.1854 10.0675 10.9382 9.95241C10.6911 9.83736 10.3885 9.77983 10.0305 9.77983C9.54901 9.77983 9.14418 9.88423 8.81605 10.093C8.49219 10.3018 8.33239 10.5724 8.33665 10.9048C8.33239 11.1903 8.43679 11.4226 8.64986 11.6016C8.86719 11.7805 9.22514 11.9276 9.72372 12.0426L11.3984 12.4006C12.3274 12.6009 13.0178 12.9183 13.4695 13.353C13.9254 13.7876 14.1555 14.3565 14.1598 15.0597C14.1555 15.6776 13.9744 16.223 13.6165 16.696C13.2628 17.1648 12.7706 17.5312 12.1399 17.7955C11.5092 18.0597 10.7848 18.1918 9.96662 18.1918C8.76491 18.1918 7.79759 17.9403 7.06463 17.4375C6.33168 16.9304 5.89489 16.2251 5.75426 15.3217L8.01065 15.1044C8.11293 15.5476 8.33026 15.8821 8.66264 16.108C8.99503 16.3338 9.42756 16.4467 9.96023 16.4467C10.5099 16.4467 10.951 16.3338 11.2834 16.108C11.62 15.8821 11.7884 15.603 11.7884 15.2706C11.7884 14.9893 11.6797 14.7571 11.4624 14.5739C11.2493 14.3906 10.9169 14.25 10.4652 14.152L8.79048 13.8004C7.84872 13.6044 7.15199 13.2741 6.70028 12.8097C6.24858 12.3409 6.02486 11.7486 6.02912 11.0327C6.02486 10.4276 6.18892 9.90341 6.52131 9.46023C6.85795 9.01278 7.32457 8.66761 7.92116 8.42472C8.52202 8.17756 9.21449 8.05398 9.99858 8.05398C11.1491 8.05398 12.0547 8.29901 12.7152 8.78906C13.38 9.27912 13.7912 9.94176 13.9489 10.777Z" fill="white"/>
</svg>
