<svg xmlns="http://www.w3.org/2000/svg" width="20" height="20" viewBox="0 0 20 20" fill="none">
  <circle cx="10" cy="10" r="9.5" fill="#DA1E28" stroke="#DA1E28"/>
  <path d="M11.8294 7.45446C11.7782 7.02264 11.5708 6.68741 11.2072 6.44878C10.8436 6.21014 10.3975 6.09082 9.86914 6.09082C9.48278 6.09082 9.14471 6.15332 8.85494 6.27832C8.568 6.40332 8.34357 6.5752 8.18164 6.79395C8.02255 7.0127 7.943 7.26127 7.943 7.53968C7.943 7.77264 7.9984 7.97292 8.1092 8.14054C8.22283 8.30531 8.36772 8.44309 8.54386 8.55389C8.71999 8.66184 8.90465 8.75133 9.09783 8.82235C9.29102 8.89054 9.46857 8.94593 9.6305 8.98855L10.5169 9.22718C10.7441 9.28684 10.997 9.36923 11.2754 9.47434C11.5566 9.57946 11.8251 9.72292 12.0808 9.90474C12.3393 10.0837 12.5524 10.3138 12.72 10.5951C12.8876 10.8763 12.9714 11.2215 12.9714 11.6306C12.9714 12.1022 12.8478 12.5283 12.6007 12.909C12.3564 13.2897 11.9984 13.5922 11.5268 13.8167C11.0581 14.0411 10.4885 14.1533 9.818 14.1533C9.193 14.1533 8.65181 14.0525 8.19442 13.8508C7.73988 13.6491 7.38192 13.3678 7.12056 13.007C6.86204 12.6462 6.71573 12.2272 6.68164 11.7499H7.77255C7.80096 12.0795 7.91175 12.3522 8.10494 12.5681C8.30096 12.7812 8.54812 12.9403 8.84641 13.0454C9.14755 13.1476 9.47141 13.1988 9.818 13.1988C10.2214 13.1988 10.5836 13.1334 10.9047 13.0028C11.2257 12.8692 11.4799 12.6846 11.6674 12.4488C11.8549 12.2101 11.9487 11.9317 11.9487 11.6135C11.9487 11.3238 11.8677 11.088 11.7058 10.9062C11.5439 10.7243 11.3308 10.5766 11.0666 10.463C10.8024 10.3493 10.5169 10.2499 10.21 10.1647L9.13619 9.85787C8.45437 9.66184 7.9146 9.38201 7.51687 9.01838C7.11914 8.65474 6.92028 8.17889 6.92028 7.59082C6.92028 7.10218 7.05238 6.67605 7.31658 6.31241C7.58363 5.94593 7.94158 5.66184 8.39045 5.46014C8.84215 5.25559 9.34641 5.15332 9.90323 5.15332C10.4657 5.15332 10.9657 5.25417 11.4032 5.45588C11.8407 5.65474 12.1873 5.92747 12.443 6.27406C12.7015 6.62065 12.8379 7.01412 12.8521 7.45446H11.8294Z" fill="white"/>
</svg>