<svg xmlns="http://www.w3.org/2000/svg" width="16" height="16" viewBox="0 0 16 16" fill="none">
    <circle cx="8.37012" cy="8.37012" r="6.87012" fill="#DA1E28" stroke="#DA1E28"/>
    <path d="M9.71874 6.49382C9.68105 6.17556 9.52821 5.92849 9.2602 5.75262C8.9922 5.57674 8.66347 5.4888 8.27403 5.4888C7.98928 5.4888 7.74011 5.53486 7.52655 5.62699C7.31508 5.71912 7.14967 5.84579 7.03032 6.00701C6.91307 6.16823 6.85444 6.35144 6.85444 6.55663C6.85444 6.72832 6.89527 6.87593 6.97693 6.99946C7.06068 7.1209 7.16746 7.22245 7.29728 7.30411C7.42709 7.38367 7.56319 7.44963 7.70557 7.50197C7.84794 7.55222 7.97881 7.59305 8.09815 7.62446L8.75141 7.80034C8.91891 7.84431 9.10526 7.90503 9.31045 7.9825C9.51774 8.05997 9.7156 8.1657 9.90404 8.2997C10.0946 8.43161 10.2516 8.60121 10.3751 8.80849C10.4987 9.01578 10.5604 9.27017 10.5604 9.57168C10.5604 9.91925 10.4694 10.2333 10.2872 10.5139C10.1071 10.7944 9.84332 11.0174 9.49575 11.1828C9.15028 11.3483 8.73047 11.431 8.23634 11.431C7.77571 11.431 7.37684 11.3566 7.03974 11.208C6.70474 11.0593 6.44092 10.852 6.24829 10.5861C6.05776 10.3202 5.94993 10.0114 5.9248 9.65962H6.72882C6.74976 9.90249 6.83141 10.1035 6.97379 10.2626C7.11826 10.4197 7.30042 10.5369 7.52027 10.6144C7.74221 10.6898 7.9809 10.7274 8.23634 10.7274C8.53366 10.7274 8.80062 10.6793 9.03721 10.583C9.27381 10.4846 9.46121 10.3485 9.59939 10.1747C9.73758 9.99881 9.80668 9.79362 9.80668 9.55911C9.80668 9.34555 9.74701 9.17176 9.62766 9.03776C9.50831 8.90376 9.35128 8.79488 9.15656 8.71113C8.96184 8.62738 8.75141 8.5541 8.52528 8.49129L7.73383 8.26516C7.23133 8.12069 6.83351 7.91445 6.54038 7.64644C6.24725 7.37844 6.10068 7.02773 6.10068 6.59432C6.10068 6.23419 6.19804 5.92012 6.39277 5.65212C6.58958 5.38202 6.8534 5.17264 7.18422 5.02398C7.51713 4.87323 7.88877 4.79785 8.29915 4.79785C8.71372 4.79785 9.08223 4.87218 9.40467 5.02084C9.72712 5.1674 9.98256 5.36841 10.171 5.62385C10.3615 5.87929 10.462 6.16928 10.4725 6.49382H9.71874Z"
          fill="white"/>
</svg>