<svg width="20" height="20" viewBox="0 0 20 20" fill="none" xmlns="http://www.w3.org/2000/svg">
<path d="M9.99996 14.8148C9.78805 14.8148 9.5809 14.88 9.4047 15.0021C9.22851 15.1242 9.09118 15.2977 9.01009 15.5007C8.92899 15.7038 8.90777 15.9272 8.94912 16.1427C8.99046 16.3582 9.0925 16.5562 9.24234 16.7116C9.39218 16.867 9.58309 16.9728 9.79093 17.0157C9.99877 17.0586 10.2142 17.0366 10.41 16.9525C10.6058 16.8684 10.7731 16.726 10.8908 16.5432C11.0085 16.3605 11.0714 16.1457 11.0714 15.9259C11.0714 15.6312 10.9585 15.3486 10.7576 15.1403C10.5566 14.9319 10.2841 14.8148 9.99996 14.8148Z" fill="#DA1E28"/>
<path d="M9.28571 6.66663H10.7143V13.3333H9.28571V6.66663Z" fill="#DA1E28"/>
<path d="M19.2857 20H0.714291C0.591572 20 0.470923 19.9672 0.363976 19.9048C0.25703 19.8424 0.167393 19.7524 0.103709 19.6437C0.0400244 19.5349 0.0044411 19.4109 0.000389473 19.2837C-0.00366216 19.1565 0.0239545 19.0304 0.0805769 18.9175L9.36629 0.398974C9.4266 0.278702 9.51758 0.177902 9.62932 0.107551C9.74106 0.0372013 9.86928 0 10 0C10.1307 0 10.2589 0.0372013 10.3707 0.107551C10.4824 0.177902 10.5734 0.278702 10.6337 0.398974L19.9194 18.9175C19.976 19.0304 20.0037 19.1565 19.9996 19.2837C19.9956 19.4109 19.96 19.5349 19.8963 19.6437C19.8326 19.7524 19.743 19.8424 19.636 19.9048C19.5291 19.9672 19.4084 20 19.2857 20ZM1.89336 18.5185H18.1066L18.1081 18.5161L10.0014 2.3492H9.99857L1.89193 18.5161L1.89336 18.5185Z" fill="#DA1E28"/>
</svg>
